<svg width="30" height="30" viewBox="0 0 30 30" fill="none" xmlns="http://www.w3.org/2000/svg">
<g clip-path="url(#clip0_60_1019)">
<path d="M8.75 0H5C3.67392 0 2.40215 0.526784 1.46447 1.46447C0.526784 2.40215 0 3.67392 0 5L0 8.75C0 10.0761 0.526784 11.3479 1.46447 12.2855C2.40215 13.2232 3.67392 13.75 5 13.75H8.75C10.0761 13.75 11.3479 13.2232 12.2855 12.2855C13.2232 11.3479 13.75 10.0761 13.75 8.75V5C13.75 3.67392 13.2232 2.40215 12.2855 1.46447C11.3479 0.526784 10.0761 0 8.75 0V0ZM11.25 8.75C11.25 9.41304 10.9866 10.0489 10.5178 10.5178C10.0489 10.9866 9.41304 11.25 8.75 11.25H5C4.33696 11.25 3.70107 10.9866 3.23223 10.5178C2.76339 10.0489 2.5 9.41304 2.5 8.75V5C2.5 4.33696 2.76339 3.70107 3.23223 3.23223C3.70107 2.76339 4.33696 2.5 5 2.5H8.75C9.41304 2.5 10.0489 2.76339 10.5178 3.23223C10.9866 3.70107 11.25 4.33696 11.25 5V8.75Z" fill="#FF0642"/>
<path d="M25 0H21.25C19.9239 0 18.6521 0.526784 17.7145 1.46447C16.7768 2.40215 16.25 3.67392 16.25 5V8.75C16.25 10.0761 16.7768 11.3479 17.7145 12.2855C18.6521 13.2232 19.9239 13.75 21.25 13.75H25C26.3261 13.75 27.5979 13.2232 28.5355 12.2855C29.4732 11.3479 30 10.0761 30 8.75V5C30 3.67392 29.4732 2.40215 28.5355 1.46447C27.5979 0.526784 26.3261 0 25 0V0ZM27.5 8.75C27.5 9.41304 27.2366 10.0489 26.7678 10.5178C26.2989 10.9866 25.663 11.25 25 11.25H21.25C20.587 11.25 19.9511 10.9866 19.4822 10.5178C19.0134 10.0489 18.75 9.41304 18.75 8.75V5C18.75 4.33696 19.0134 3.70108 19.4822 3.23223C19.9511 2.76339 20.587 2.5 21.25 2.5H25C25.663 2.5 26.2989 2.76339 26.7678 3.23223C27.2366 3.70108 27.5 4.33696 27.5 5V8.75Z" fill="#FF0642"/>
<path d="M8.75 15.75H5C3.67392 15.75 2.40215 16.2768 1.46447 17.2145C0.526784 18.1521 0 19.4239 0 20.75L0 24.5C0 25.8261 0.526784 27.0979 1.46447 28.0355C2.40215 28.9732 3.67392 29.5 5 29.5H8.75C10.0761 29.5 11.3478 28.9732 12.2855 28.0355C13.2232 27.0979 13.75 25.8261 13.75 24.5V20.75C13.75 19.4239 13.2232 18.1521 12.2855 17.2145C11.3478 16.2768 10.0761 15.75 8.75 15.75ZM11.25 24.5C11.25 25.163 10.9866 25.7989 10.5178 26.2678C10.0489 26.7366 9.41304 27 8.75 27H5C4.33696 27 3.70107 26.7366 3.23223 26.2678C2.76339 25.7989 2.5 25.163 2.5 24.5V20.75C2.5 20.087 2.76339 19.4511 3.23223 18.9822C3.70107 18.5134 4.33696 18.25 5 18.25H8.75C9.41304 18.25 10.0489 18.5134 10.5178 18.9822C10.9866 19.4511 11.25 20.087 11.25 20.75V24.5Z" fill="#FF0642"/>
<path d="M25 15.75H21.25C19.9239 15.75 18.6521 16.2768 17.7145 17.2145C16.7768 18.1521 16.25 19.4239 16.25 20.75V24.5C16.25 25.8261 16.7768 27.0979 17.7145 28.0355C18.6521 28.9732 19.9239 29.5 21.25 29.5H25C26.3261 29.5 27.5979 28.9732 28.5355 28.0355C29.4732 27.0979 30 25.8261 30 24.5V20.75C30 19.4239 29.4732 18.1521 28.5355 17.2145C27.5979 16.2768 26.3261 15.75 25 15.75ZM27.5 24.5C27.5 25.163 27.2366 25.7989 26.7678 26.2678C26.2989 26.7366 25.663 27 25 27H21.25C20.587 27 19.9511 26.7366 19.4822 26.2678C19.0134 25.7989 18.75 25.163 18.75 24.5V20.75C18.75 20.087 19.0134 19.4511 19.4822 18.9822C19.9511 18.5134 20.587 18.25 21.25 18.25H25C25.663 18.25 26.2989 18.5134 26.7678 18.9822C27.2366 19.4511 27.5 20.087 27.5 20.75V24.5Z" fill="#FF0642"/>
</g>
<defs>
<clipPath id="clip0_60_1019">
<rect width="30" height="30" fill="white"/>
</clipPath>
</defs>
</svg>
